# FreeCAD v0.19 build Arch module
# http://www.freecadweb.org
mtllib chassis.mtl
o Cut009
usemtl color_cccccc
v 0.0 50.0 0.0
v -46.529491 48.244171 0.0
v 0.0 50.0 2.0
v -46.529491 48.244171 2.0
v -47.674919 47.316109 2.0
v -47.674919 47.316109 0.0
v -48.512352 45.988625 0.0
v -48.512352 45.988625 2.0
v -49.814045 34.313061 0.0
v -49.814045 34.313061 2.0
v -50.0 0.0 0.0
v -50.0 0.0 2.0
v 46.529491 48.244171 0.0
v 46.529491 48.244171 2.0
v 47.674919 47.316109 2.0
v 47.674919 47.316109 0.0
v 48.512352 45.988625 0.0
v 48.512352 45.988625 2.0
v 49.814045 34.313061 0.0
v 49.814045 34.313061 2.0
v 50.0 0.0 0.0
v 50.0 0.0 2.0
v -46.529491 -48.244171 0.0
v 0.0 -50.0 0.0
v 0.0 -50.0 2.0
v -46.529491 -48.244171 2.0
v -47.674919 -47.316109 2.0
v -47.674919 -47.316109 0.0
v -48.512352 -45.988625 0.0
v -48.512352 -45.988625 2.0
v -49.814045 -34.313061 0.0
v -49.814045 -34.313061 2.0
v -45.178963 -37.207893 0.0
v -36.34013 -46.04673 0.0
v -35.385536 -27.414465 0.0
v -26.5467 -36.2533 0.0
v -25.592106 -17.621037 0.0
v -16.753271 -26.459871 0.0
v -36.2533 26.5467 0.0
v -46.04673 36.34013 0.0
v -26.459871 16.753271 0.0
v 26.5467 -36.2533 0.0
v 36.34013 -46.04673 0.0
v 16.753271 -26.459871 0.0
v 46.529491 -48.244171 0.0
v 48.512352 -45.988625 0.0
v 47.674919 -47.316109 0.0
v -17.621037 25.592106 0.0
v 45.178963 -37.207893 0.0
v -37.207893 45.178963 0.0
v 25.592106 -17.621037 0.0
v 49.814045 -34.313061 0.0
v 35.385536 -27.414465 0.0
v 17.621037 25.592106 0.0
v 26.459871 16.753271 0.0
v -27.414465 35.385536 0.0
v 27.414465 35.385536 0.0
v 36.2533 26.5467 0.0
v 37.207893 45.178963 0.0
v 46.04673 36.34013 0.0
v -45.178963 -37.207893 2.0
v -36.34013 -46.04673 2.0
v -35.385536 -27.414465 2.0
v -26.5467 -36.2533 2.0
v -25.592106 -17.621037 2.0
v -16.753271 -26.459871 2.0
v -36.2533 26.5467 2.0
v -46.04673 36.34013 2.0
v -26.459871 16.753271 2.0
v 26.5467 -36.2533 2.0
v 36.34013 -46.04673 2.0
v 16.753271 -26.459871 2.0
v 46.529491 -48.244171 2.0
v 48.512352 -45.988625 2.0
v 47.674919 -47.316109 2.0
v -17.621037 25.592106 2.0
v 45.178963 -37.207893 2.0
v -37.207893 45.178963 2.0
v 25.592106 -17.621037 2.0
v 49.814045 -34.313061 2.0
v 35.385536 -27.414465 2.0
v 17.621037 25.592106 2.0
v 26.459871 16.753271 2.0
v -27.414465 35.385536 2.0
v 27.414465 35.385536 2.0
v 36.2533 26.5467 2.0
v 37.207893 45.178963 2.0
v 46.04673 36.34013 2.0
v -25.592106 -17.621037 0.0
v -25.592106 -17.621037 2.0
v -16.753271 -26.459871 0.0
v -16.753271 -26.459871 2.0
v 25.592106 -17.621037 0.0
v 25.592106 -17.621037 2.0
v 16.753271 -26.459871 0.0
v 16.753271 -26.459871 2.0
v -27.414465 35.385536 0.0
v -27.414465 35.385536 2.0
v -46.04673 36.34013 0.0
v -46.04673 36.34013 2.0
v -36.2533 26.5467 0.0
v -36.2533 26.5467 2.0
v -26.459871 16.753271 0.0
v -26.459871 16.753271 2.0
v -17.621037 25.592106 0.0
v -17.621037 25.592106 2.0
v 17.621037 25.592106 0.0
v 17.621037 25.592106 2.0
vn -0.037708986550569534 0.9992887377738953 0.0
vn -0.037708986550569534 0.9992887377738953 0.0
vn -0.629530668258667 0.7769755721092224 0.0
vn -0.629530668258667 0.7769755721092224 0.0
vn -0.8457701802253723 0.5335474014282227 0.0
vn -0.8457701802253723 0.5335474014282227 0.0
vn -0.9938425421714783 0.11080217361450195 0.0
vn -0.9938425421714783 0.11080217361450195 0.0
vn -0.9999853372573853 0.005419286899268627 0.0
vn -0.9999853372573853 0.005419286899268627 0.0
vn 0.037708986550569534 0.9992887377738953 0.0
vn 0.037708986550569534 0.9992887377738953 -0.0
vn 0.629530668258667 0.7769755721092224 0.0
vn 0.629530668258667 0.7769755721092224 -0.0
vn 0.8457701802253723 0.5335474014282227 -0.0
vn 0.8457701802253723 0.5335474014282227 0.0
vn 0.9938425421714783 0.11080217361450195 -0.0
vn 0.9938425421714783 0.11080217361450195 0.0
vn 0.9999853372573853 0.005419286899268627 -0.0
vn 0.9999853372573853 0.005419286899268627 0.0
vn -0.037708986550569534 -0.9992887377738953 0.0
vn -0.037708986550569534 -0.9992887377738953 0.0
vn -0.629530668258667 -0.7769755721092224 0.0
vn -0.629530668258667 -0.7769755721092224 0.0
vn -0.8457701802253723 -0.5335474014282227 0.0
vn -0.8457701802253723 -0.5335474014282227 0.0
vn -0.9938425421714783 -0.11080217361450195 0.0
vn -0.9938425421714783 -0.11080217361450195 0.0
vn -0.9999853372573853 -0.005419286899268627 0.0
vn -0.9999853372573853 -0.005419286899268627 0.0
vn 0.0 0.0 -1.0
vn 0.0 0.0 -1.0
vn 0.0 0.0 -1.0
vn 0.0 -0.0 -1.0
vn 0.0 0.0 -1.0
vn 0.0 -0.0 -1.0
vn 0.0 -0.0 -1.0
vn 0.0 0.0 -1.0
vn 0.0 0.0 -1.0
vn 0.0 0.0 -1.0
vn 0.0 -0.0 -1.0
vn 0.0 0.0 -1.0
vn 0.0 -0.0 -1.0
vn 0.0 0.0 -1.0
vn 0.0 0.0 -1.0
vn 0.0 0.0 -1.0
vn 0.0 0.0 -1.0
vn 0.0 0.0 -1.0
vn 0.0 0.0 -1.0
vn 0.0 -0.0 -1.0
vn 0.0 -0.0 -1.0
vn 0.0 0.0 -1.0
vn 0.0 0.0 -1.0
vn 0.0 0.0 -1.0
vn 0.0 0.0 -1.0
vn 0.0 0.0 -1.0
vn 0.0 -0.0 -1.0
vn 0.0 0.0 -1.0
vn 0.0 0.0 -1.0
vn 0.0 0.0 -1.0
vn 0.0 0.0 -1.0
vn 0.0 -0.0 -1.0
vn 0.0 0.0 -1.0
vn 0.0 -0.0 -1.0
vn 0.0 0.0 -1.0
vn 0.0 0.0 -1.0
vn 0.0 0.0 -1.0
vn 0.0 0.0 -1.0
vn 0.0 0.0 -1.0
vn 0.0 0.0 -1.0
vn 0.0 0.0 -1.0
vn 0.0 0.0 -1.0
vn 0.0 0.0 -1.0
vn 0.0 0.0 -1.0
vn 0.0 -0.0 -1.0
vn 0.0 0.0 -1.0
vn 0.0 0.0 -1.0
vn 0.0 0.0 -1.0
vn 0.0 0.0 -1.0
vn 0.0 0.0 -1.0
vn 0.0 0.0 1.0
vn 0.0 0.0 1.0
vn 0.0 0.0 1.0
vn 0.0 0.0 1.0
vn 0.0 0.0 1.0
vn 0.0 0.0 1.0
vn 0.0 0.0 1.0
vn 0.0 0.0 1.0
vn 0.0 0.0 1.0
vn 0.0 0.0 1.0
vn 0.0 0.0 1.0
vn 0.0 0.0 1.0
vn 0.0 0.0 1.0
vn 0.0 0.0 1.0
vn 0.0 0.0 1.0
vn 0.0 0.0 1.0
vn 0.0 0.0 1.0
vn 0.0 0.0 1.0
vn 0.0 0.0 1.0
vn 0.0 0.0 1.0
vn 0.0 0.0 1.0
vn 0.0 0.0 1.0
vn 0.0 0.0 1.0
vn 0.0 0.0 1.0
vn 0.0 0.0 1.0
vn 0.0 0.0 1.0
vn 0.0 0.0 1.0
vn 0.0 0.0 1.0
vn 0.0 0.0 1.0
vn 0.0 0.0 1.0
vn 0.0 0.0 1.0
vn 0.0 0.0 1.0
vn 0.0 0.0 1.0
vn 0.0 0.0 1.0
vn 0.0 0.0 1.0
vn 0.0 0.0 1.0
vn 0.0 0.0 1.0
vn 0.0 0.0 1.0
vn 0.0 0.0 1.0
vn 0.0 0.0 1.0
vn 0.0 0.0 1.0
vn 0.0 0.0 1.0
vn 0.0 0.0 1.0
vn 0.0 0.0 1.0
vn 0.0 0.0 1.0
vn 0.0 0.0 1.0
vn 0.0 0.0 1.0
vn 0.0 0.0 1.0
vn 0.0 0.0 1.0
vn 0.0 0.0 1.0
vn 0.037708986550569534 -0.9992887377738953 0.0
vn 0.037708986550569534 -0.9992887377738953 0.0
vn 0.629530668258667 -0.7769755721092224 0.0
vn 0.629530668258667 -0.7769755721092224 0.0
vn 0.8457701802253723 -0.5335474014282227 0.0
vn 0.8457701802253723 -0.5335474014282227 0.0
vn 0.9938425421714783 -0.11080217361450195 0.0
vn 0.9938425421714783 -0.11080217361450195 0.0
vn 0.9999853372573853 -0.005419286899268627 0.0
vn 0.9999853372573853 -0.005419286899268627 0.0
vn 0.7071068286895752 -0.7071067094802856 0.0
vn 0.7071068286895752 -0.7071067094802856 0.0
vn 0.7071067094802856 -0.70710688829422 0.0
vn 0.7071067094802856 -0.70710688829422 0.0
vn 0.7071069478988647 0.7071066498756409 0.0
vn 0.7071069478988647 0.7071066498756409 -0.0
vn -0.7071067690849304 -0.7071067690849304 0.0
vn -0.7071067690849304 -0.7071067690849304 0.0
vn -0.7071067690849304 0.7071067690849304 0.0
vn -0.7071067690849304 0.7071067690849304 0.0
vn -0.7071067690849304 0.7071067690849304 0.0
vn -0.7071067690849304 0.7071067690849304 0.0
vn -0.7071067094802856 -0.70710688829422 0.0
vn -0.7071067094802856 -0.70710688829422 0.0
vn -0.7071068286895752 -0.7071067094802856 0.0
vn -0.7071068286895752 -0.7071067094802856 0.0
vn 0.7071067690849304 -0.7071067690849304 0.0
vn 0.7071067690849304 -0.7071067690849304 0.0
vn -0.7071069478988647 0.7071066498756409 0.0
vn -0.7071069478988647 0.7071066498756409 0.0
vn 0.7071067690849304 0.7071067690849304 0.0
vn 0.7071067690849304 0.7071067690849304 -0.0
vn 0.7071067690849304 0.7071067690849304 0.0
vn 0.7071067690849304 0.7071067690849304 -0.0
vn -0.7071067094802856 -0.7071068286895752 0.0
vn -0.7071067094802856 -0.7071068286895752 0.0
vn 0.7071066498756409 -0.7071069478988647 0.0
vn 0.7071066498756409 -0.7071069478988647 0.0
vn 0.7071067690849304 0.7071067690849304 0.0
vn 0.7071067690849304 0.7071067690849304 -0.0
vn 0.7071067690849304 0.7071067690849304 0.0
vn 0.7071067690849304 0.7071067690849304 -0.0
vn -0.7071067690849304 0.7071067690849304 0.0
vn -0.7071067690849304 0.7071067690849304 0.0
vn -0.70710688829422 -0.7071067094802856 0.0
vn -0.70710688829422 -0.7071067094802856 0.0
vn 0.70710688829422 -0.7071067094802856 0.0
vn 0.70710688829422 -0.7071067094802856 0.0
vn 0.7071067094802856 -0.7071068286895752 0.0
vn 0.7071067094802856 -0.7071068286895752 0.0
vn 0.7071067690849304 0.7071067690849304 0.0
vn 0.7071067690849304 0.7071067690849304 -0.0
vn -0.7071066498756409 -0.7071069478988647 0.0
vn -0.7071066498756409 -0.7071069478988647 0.0
vn -0.7071067690849304 0.7071067690849304 0.0
vn -0.7071067690849304 0.7071067690849304 0.0
vn -0.7071067690849304 0.7071067690849304 0.0
vn -0.7071067690849304 0.7071067690849304 0.0
f 1//1 2//1 3//1 
f 3//2 2//2 4//2 
f 2//3 5//3 4//3 
f 2//4 6//4 5//4 
f 5//5 7//5 8//5 
f 6//6 7//6 5//6 
f 8//7 9//7 10//7 
f 7//8 9//8 8//8 
f 10//9 11//9 12//9 
f 9//10 11//10 10//10 
f 13//11 1//11 3//11 
f 13//12 3//12 14//12 
f 15//13 13//13 14//13 
f 16//14 13//14 15//14 
f 17//15 15//15 18//15 
f 17//16 16//16 15//16 
f 19//17 18//17 20//17 
f 19//18 17//18 18//18 
f 21//19 20//19 22//19 
f 21//20 19//20 20//20 
f 23//21 24//21 25//21 
f 23//22 25//22 26//22 
f 27//23 23//23 26//23 
f 28//24 23//24 27//24 
f 29//25 27//25 30//25 
f 29//26 28//26 27//26 
f 31//27 30//27 32//27 
f 31//28 29//28 30//28 
f 11//29 32//29 12//29 
f 11//30 31//30 32//30 
f 28//31 29//31 23//31 
f 31//32 33//32 29//32 
f 29//33 33//33 23//33 
f 33//34 34//34 23//34 
f 31//35 35//35 33//35 
f 36//36 24//36 34//36 
f 34//37 24//37 23//37 
f 31//38 11//38 35//38 
f 11//39 37//39 35//39 
f 36//40 38//40 24//40 
f 9//41 39//41 11//41 
f 9//42 40//42 39//42 
f 39//43 41//43 11//43 
f 11//44 41//44 37//44 
f 24//45 42//45 43//45 
f 37//46 44//46 38//46 
f 38//47 44//47 24//47 
f 24//48 44//48 42//48 
f 9//49 7//49 40//49 
f 43//50 45//50 24//50 
f 6//51 2//51 7//51 
f 45//52 46//52 47//52 
f 41//53 48//53 37//53 
f 43//54 49//54 45//54 
f 45//55 49//55 46//55 
f 7//56 50//56 40//56 
f 2//57 50//57 7//57 
f 37//58 51//58 44//58 
f 49//59 52//59 46//59 
f 53//60 52//60 49//60 
f 37//61 54//61 51//61 
f 48//62 54//62 37//62 
f 54//63 55//63 51//63 
f 55//64 21//64 51//64 
f 51//65 21//65 53//65 
f 53//66 21//66 52//66 
f 2//67 1//67 50//67 
f 48//68 1//68 54//68 
f 50//69 1//69 56//69 
f 56//70 1//70 48//70 
f 1//71 57//71 54//71 
f 55//72 58//72 21//72 
f 1//73 59//73 57//73 
f 58//74 19//74 21//74 
f 60//75 19//75 58//75 
f 60//76 17//76 19//76 
f 59//77 17//77 60//77 
f 1//78 13//78 59//78 
f 59//79 13//79 17//79 
f 13//80 16//80 17//80 
f 30//81 27//81 26//81 
f 61//82 32//82 30//82 
f 61//83 30//83 26//83 
f 62//84 61//84 26//84 
f 63//85 32//85 61//85 
f 25//86 64//86 62//86 
f 25//87 62//87 26//87 
f 12//88 32//88 63//88 
f 65//89 12//89 63//89 
f 66//90 64//90 25//90 
f 67//91 10//91 12//91 
f 68//92 10//92 67//92 
f 69//93 67//93 12//93 
f 69//94 12//94 65//94 
f 70//95 25//95 71//95 
f 72//96 65//96 66//96 
f 72//97 66//97 25//97 
f 72//98 25//98 70//98 
f 8//99 10//99 68//99 
f 73//100 71//100 25//100 
f 4//101 5//101 8//101 
f 74//102 73//102 75//102 
f 76//103 69//103 65//103 
f 77//104 71//104 73//104 
f 77//105 73//105 74//105 
f 78//106 8//106 68//106 
f 78//107 4//107 8//107 
f 79//108 65//108 72//108 
f 80//109 77//109 74//109 
f 80//110 81//110 77//110 
f 82//111 65//111 79//111 
f 82//112 76//112 65//112 
f 83//113 82//113 79//113 
f 22//114 83//114 79//114 
f 22//115 79//115 81//115 
f 22//116 81//116 80//116 
f 3//117 4//117 78//117 
f 3//118 76//118 82//118 
f 3//119 78//119 84//119 
f 3//120 84//120 76//120 
f 85//121 3//121 82//121 
f 86//122 83//122 22//122 
f 87//123 3//123 85//123 
f 20//124 86//124 22//124 
f 20//125 88//125 86//125 
f 18//126 88//126 20//126 
f 18//127 87//127 88//127 
f 14//128 3//128 87//128 
f 14//129 87//129 18//129 
f 15//130 14//130 18//130 
f 24//131 45//131 25//131 
f 25//132 45//132 73//132 
f 45//133 75//133 73//133 
f 45//134 47//134 75//134 
f 75//135 46//135 74//135 
f 47//136 46//136 75//136 
f 74//137 52//137 80//137 
f 46//138 52//138 74//138 
f 80//139 21//139 22//139 
f 52//140 21//140 80//140 
f 33//141 35//141 63//141 
f 33//142 63//142 61//142 
f 35//143 89//143 63//143 
f 63//144 89//144 90//144 
f 34//145 33//145 61//145 
f 34//146 61//146 62//146 
f 89//147 91//147 90//147 
f 90//148 91//148 92//148 
f 36//149 34//149 62//149 
f 36//150 62//150 64//150 
f 91//151 36//151 64//151 
f 91//152 64//152 92//152 
f 93//153 53//153 81//153 
f 93//154 81//154 94//154 
f 53//155 49//155 81//155 
f 81//156 49//156 77//156 
f 95//157 93//157 94//157 
f 95//158 94//158 96//158 
f 49//159 43//159 77//159 
f 77//160 43//160 71//160 
f 42//161 95//161 96//161 
f 42//162 96//162 70//162 
f 43//163 42//163 70//163 
f 43//164 70//164 71//164 
f 50//165 97//165 98//165 
f 50//166 98//166 78//166 
f 99//167 50//167 78//167 
f 99//168 78//168 100//168 
f 101//169 99//169 100//169 
f 101//170 100//170 102//170 
f 103//171 101//171 102//171 
f 103//172 102//172 104//172 
f 105//173 103//173 106//173 
f 106//174 103//174 104//174 
f 97//175 105//175 98//175 
f 98//176 105//176 106//176 
f 107//177 57//177 85//177 
f 107//178 85//178 108//178 
f 57//179 59//179 85//179 
f 85//180 59//180 87//180 
f 55//181 107//181 108//181 
f 55//182 108//182 83//182 
f 59//183 60//183 87//183 
f 87//184 60//184 88//184 
f 58//185 55//185 83//185 
f 58//186 83//186 86//186 
f 60//187 58//187 86//187 
f 60//188 86//188 88//188 
